<?xml version="1.0" encoding="UTF-8"?><svg id="Layer_1" xmlns="http://www.w3.org/2000/svg" xmlns:xlink="http://www.w3.org/1999/xlink" viewBox="0 0 784.71 587.64"><defs><style>.cls-1{fill:#ffe1c0;}.cls-2{fill:#ff8a66;}.cls-3{fill:url(#linear-gradient-2);}.cls-4{fill:#ff6d66;}.cls-5,.cls-6,.cls-7,.cls-8{fill:#fff;}.cls-6{opacity:.5;}.cls-9,.cls-7,.cls-10{stroke:#fff;}.cls-9,.cls-7,.cls-10,.cls-11,.cls-12,.cls-13{stroke-linecap:round;stroke-linejoin:round;}.cls-9,.cls-10,.cls-14,.cls-11,.cls-12,.cls-13{fill:none;}.cls-15{fill:#f9865f;}.cls-16{fill:#ffb703;}.cls-10{stroke-width:.67px;}.cls-17{fill:#a0c6f4;}.cls-18{fill:#8c3c6c;}.cls-19{fill:#7595ec;}.cls-20{fill:#8ecae6;}.cls-21{fill:#fad8b0;}.cls-22{fill:#fff7dc;}.cls-8{opacity:.2;}.cls-23{fill:#91ba83;}.cls-24{fill:#121212;}.cls-25{fill:#023047;}.cls-14{stroke:#fad8b0;stroke-miterlimit:10;}.cls-11{stroke:#2a1e33;}.cls-26{fill:url(#linear-gradient-3);}.cls-27{fill:url(#linear-gradient);}.cls-12{stroke:#a0c6f4;}.cls-28{fill:url(#linear-gradient-4);}.cls-29{fill:#2a1e33;}.cls-13{stroke:#ff6d66;}</style><linearGradient id="linear-gradient" x1="150.23" y1="335.65" x2="229.34" y2="335.38" gradientTransform="translate(0 588.67) scale(1 -1)" gradientUnits="userSpaceOnUse"><stop offset="0" stop-color="#8ecae6"/><stop offset="1" stop-color="#023047"/></linearGradient><linearGradient id="linear-gradient-2" x1="109.86" y1="278.02" x2="242.49" y2="277.71" xlink:href="#linear-gradient"/><linearGradient id="linear-gradient-3" x1="497.94" y1="254.55" x2="576.76" y2="254.33" xlink:href="#linear-gradient"/><linearGradient id="linear-gradient-4" x1="410.4" y1="181.74" x2="580.53" y2="180.93" xlink:href="#linear-gradient"/></defs><path class="cls-6" d="M542.83,171.45c-54.17-50.86-117.64-63.99-134.41-66.67,11.3-30.53,28.76-75.91,33.1-82.63,2.81-.35,5.64-.52,8.48-.49,12.32,0,38.71,2.56,76.91,19.76,55.17,24.84,69.84,52.77,72.75,59.6l-56.83,70.42Z"/><path class="cls-20" d="M450,25.02c12.05,0,37.9,2.53,75.49,19.46,49.84,22.47,65.94,47.59,70.22,56.08l-53.2,66c-26.32-23.72-57.04-42.01-90.42-53.82-12.72-4.59-25.8-8.13-39.09-10.6,12.49-33.61,26.07-68.21,30.63-76.85,1.49-.13,3.63-.27,6.4-.27h-.03Zm.03-6.7c-3.4-.07-6.79,.16-10.15,.7-3.91,1.31-36.01,88.49-36.01,88.49,0,0,76.19,7.79,139.31,68.86l60.19-74.72s-10.03-33.93-75.24-63.27c-38.17-17.2-64.77-20.1-78.23-20.1l.13,.03Z"/><path class="cls-9" d="M415.02,114.3s74.92,7.57,121.07,50.02"/><path class="cls-17" d="M479.69,110.63l27.96-54.43,28.73,56.75-56.68-2.33Z"/><path class="cls-9" d="M485.12,109.86l27.96-54.43,28.72,56.75-56.68-2.33Z"/><path class="cls-9" d="M458.91,15.01s84.03,7.64,136.2,69.73"/><path class="cls-5" d="M501.83,256.19c-4.61-3.35-7.64-5.68-7.64-5.68,1.27-1.68,21.48-23.26,33.19-40.65,0,0-23.67,47.71-25.55,46.32Z"/><path class="cls-9" d="M215.43,98.99c2.26,3.77,3.24,2.26,9.75,1.67,6.5-.59,15.77,4.25,19.01,12.28,3.24,8.02,2.26,9.26,.5,10.26-1.76,1-14.24,2.51-14.75,5.02"/><path class="cls-15" d="M383.92,506.7l-5.84-9.86-20.67,34.52,5.42,4.19,21.08-28.84Z"/><path class="cls-15" d="M246.67,421.21s-10.72-17.43-6.12-25.99l34.17,3.67-28.06,22.32Z"/><path d="M246.67,421.21l2.04,4.72-6.3,24.65c-.4,1.52-.36,3.13,.11,4.63,.47,1.5,1.35,2.84,2.55,3.86l31.25-46.27c1.43-2.13,2.06-4.7,1.77-7.25-.29-2.55-1.48-4.91-3.36-6.67l-6.99-6.5-21.07,28.82Z"/><path class="cls-29" d="M229.95,128.3c9.78-.23,22.19-.85,19.7-8.37-2.49-7.52-11.7-26.07-32.85-20.5,0,0-7.44,6.21,1.86,17.4,9.3,11.19,11.3,11.47,11.3,11.47Z"/><path class="cls-25" d="M279.47,399.22s-16.72-49.4-2.57-71.09c11.7-17.9,49.79,11.2,55.01,15.07l27.27-49.27s-6.29-8.84-21.74-17.5-79.3-34.58-109.31,12.84c-11.09,17.52-11.25,92.73,10.03,121.55l41.31-11.61Z"/><path class="cls-9" d="M279.47,399.22s-16.72-49.4-2.57-71.09c11.7-17.9,49.79,11.2,55.01,15.07"/><path class="cls-25" d="M359.17,293.94c-12.41,13.08-49.17,76.78-57.45,107.18-11.05,40.73-6.89,74.51,53.9,140.67l29.38-42.87s-20.67-31.42-16.72-61.04c5.59-42.85,36.03-84.4,51.43-110.76l-60.54-33.18Z"/><path class="cls-18" d="M363.84,299.46l48.87,38.43,14.61-22.24-63.49-16.19Z"/><path class="cls-2" d="M644.6,259.07c7.62,1.64,13.43,4.55,17.42,8.73,4,4.19,2.19,6.36,.74,7.64-1.46,1.27-7.09-.18-11.99-4.54-4.9-4.35-6.17-11.82-6.17-11.82Z"/><path class="cls-15" d="M494.19,250.51c1.27-1.68,21.48-23.26,33.19-40.65,0,0,35.36,39.69,39.21,40.98,1.42,.47,10.03,.35,20.87,.25,18.19-.2,42.38-.38,47.73,2.31,8.53,4.25,13.64,6.4,15.77,12.38,2.12,5.98,2.98,9.88-2.12,10.23-5.97,.43-9.8-7.25-9.8-7.25-5.62,3.02-11.48,5.6-17.51,7.69,0,0-45.33,17.62-75.62,9.09-8.24-2.33-51.71-35.03-51.71-35.03Z"/><path class="cls-15" d="M219.43,91.97c-3.88,1.49-6.25,3.27-4,7.02,2.26,3.75,3.24,2.26,9.75,1.68,6.5-.59,15.77,4.25,19.01,12.28,3.24,8.02,2.26,9.26,.5,10.27-1.76,1-14.24,2.51-14.75,5.02-.5,2.51,5.02,9.9,16.57,9.41l2.74-.5s24.19,23.66,27.7,27.16c3.51,3.5,29.23,20.97,43.47,24.52,10.77,2.7,32.6-.77,45.71-3.35,6.37-1.26,10.7-2.28,10.7-2.28,0,0-9.85-17.77-11.85-45.06,0,0-23.54,3.78-39.19,7.23,0,0-36.52-20.4-54.27-29.42,0,0-15.52-19.02-22.77-21.54-7.26-2.51-24.08-4.42-29.33-2.43Z"/><path class="cls-5" d="M366.08,185.55c6.37-1.26,10.7-2.28,10.7-2.28,0,0-11.92-15.07-13.91-42.34,0,0-5.38,5.81-3.71,21.27,2.11,19.53,6.92,23.35,6.92,23.35Z"/><path class="cls-16" d="M362.37,137.88s.33,33.38,9.26,47.29l3.19-1.29s-42.05,49.28-55.66,81.49c-2.22,5.28,87.33,62.57,100.55,61.76,0,0,43.64-66.7,58.52-86.48l16.05,12.46s31.45-31.92,33.14-43.24c0,0-30.38-37.03-55.18-47.88-24.8-10.85-47.18-29.41-73.89-28.82-23.11,.35-36,4.71-36,4.71Z"/><path class="cls-5" d="M494.22,253.11l-16.03-12.46,2.56-6.97,13.48,19.43Z"/><path class="cls-15" d="M518.63,121.16c-2.81,8.76-10.92,34.06-19.96,37.18-9.05,3.11-18.39-.79-18.39-.79l-9.63,4.92c-1.07,3.23-8.68,6.01-18.49,6.4-7.27,.28-11.7-9.08-9.55-15.84,.99-3.12,4.68-18.42,4.68-18.42,0,0,7.79-28.74,15.05-34.67,7.26-5.93,13.91-11.82,33.05-4.07,29.16,11.86,23.24,25.29,23.24,25.29Z"/><path class="cls-29" d="M460.5,122.42c-1.29,5.36-6.86,16.11-10.52,14.17-3.66-1.94-4.93-6.87-2.36-16.33,2.58-9.46,4.73-30.93,12.02-34.8,7.29-3.87,10.52,.64,10.52,.64,0,0-3.23-15.67,6.22-17.84,0,0,3.21-1.49,1.92,9.24,1.25-2.95,3.45-5.4,6.25-6.96,2.8-1.56,6.04-2.13,9.2-1.63,11.7,1.29,15.87,17.84,15.87,17.84,.34-1.37,1.15-2.57,2.29-3.4,1.14-.83,2.53-1.23,3.93-1.12,5.37,0,13.53,7.95,11.59,16.75,0,0,13.73-4.3,21.02,6.7,7.29,11,6.44,22.99-11.15,27.72-18.39,4.94-18.22-16.55-21.02-19.34-2.79-2.8-5.78-6.01-16.08-2.14-10.3,3.87-21.03-7.52-21.03-7.52,0,0-1.67,13.75-3.43,15.07-1.76,1.32-5.15,3.01-4.3-3.43,.85-6.45,1.94-5.81,1.29-7.52s-3.54-7.15-9.65-2.36c-6.85,5.26-2.57,16.28-2.57,16.28Z"/><path class="cls-11" d="M463.42,124.8c-4.1-3.35-6.94-9.51-3.34-15.57,3.6-6.06,9.5-6.88,11.29-4.59,1.79,2.3,2.49,6.16,.8,10.75"/><path d="M362.85,535.54l2.04,4.71-6.3,24.65c-.4,1.52-.36,3.13,.11,4.63,.47,1.5,1.35,2.84,2.55,3.86l31.22-46.27c1.43-2.13,2.06-4.7,1.77-7.25-.29-2.55-1.48-4.91-3.36-6.66l-6.99-6.5-21.03,28.84Z"/><path class="cls-11" d="M470.16,86.09s-2.41-7.79-9.58-9.85"/><path class="cls-9" d="M318.09,263.01l86.58-121.13"/><path class="cls-9" d="M440.37,150.35c-3.13,4.07-4.55,21.55,9.82,22.68,8.19,.82,16.43-1,23.52-5.18"/><path class="cls-9" d="M248.67,94.48s9.9,13.11,11.45,17.79"/><path class="cls-9" d="M619.25,270.38s6.69,5.44,19.78-1.68c4.77-2.56,1.37-8.61-4.68-7.1-6.05,1.51-13.21-.75-13.21-.75"/><path class="cls-9" d="M646.87,259.82s6.34,7.42,6.17,11.82"/><path class="cls-9" d="M553.51,259.02s5.74-7.65,13.08-8.17"/><path class="cls-9" d="M311.66,157.8s3.34-10.45,14.08-12.36"/><path class="cls-9" d="M340.73,316.36l-12.81,24.47s-42.2,71.53-27.87,117.75"/><path class="cls-9" d="M378.12,398.42l41.52-71.29s54.42-79.06,59.99-90.13l19.21-35.59"/><path class="cls-9" d="M323.91,270.61s73.85,53.92,95.74,56.52"/><path class="cls-9" d="M362.37,137.88s0,33.85,9.05,47.71"/><path class="cls-9" d="M525,204.51c-2.32,13.93-33.14,43.22-33.14,43.22"/><path class="cls-5" d="M295,378.21c2.42,0,4.38-1.96,4.38-4.39s-1.96-4.39-4.38-4.39-4.38,1.96-4.38,4.39,1.96,4.39,4.38,4.39Z"/><path class="cls-9" d="M706.38,468.19l-2.43-16.8,14.3,9.53-7.47,1.62-4.4,5.64Z"/><path class="cls-9" d="M231.95,181.43c-27.1-23.96-71.89,35.77,91.96,225.91,94.55,109.69,168.87,119.52,178.9,81.36,18.06-68.46-47.15-85.76-22.87-58.95,35.28,38.99,135.61,47.23,210.4,10.85,73.79-35.9,28.42-91.65,23.84-94.92"/><path class="cls-5" d="M691.58,444.64c2.42,0,4.38-1.96,4.38-4.39s-1.96-4.39-4.38-4.39-4.38,1.96-4.38,4.39,1.96,4.39,4.38,4.39Z"/><path class="cls-9" d="M627.78,476.11l129.96-73.38"/><path class="cls-5" d="M234.66,189.37c2.42,0,4.38-1.96,4.38-4.39s-1.96-4.39-4.38-4.39-4.38,1.96-4.38,4.39,1.96,4.39,4.38,4.39Z"/><path class="cls-4" d="M346.47,103.73c5.2,0,9.41-4.22,9.41-9.43s-4.21-9.43-9.41-9.43-9.41,4.22-9.41,9.43,4.21,9.43,9.41,9.43Z"/><path class="cls-17" d="M175.79,22.44c-.82,0-1.62,.24-2.31,.69-.68,.45-1.22,1.1-1.53,1.86-.32,.76-.4,1.59-.24,2.4,.16,.81,.55,1.55,1.13,2.13,.58,.58,1.32,.98,2.12,1.14,.8,.16,1.64,.08,2.4-.23,.76-.31,1.41-.85,1.86-1.53,.46-.68,.7-1.49,.7-2.31,0-1.1-.43-2.15-1.21-2.93-.77-.78-1.82-1.22-2.92-1.22Z"/><path class="cls-21" d="M729.87,536.87c2.28,0,4.13-1.85,4.13-4.14s-1.85-4.14-4.13-4.14-4.13,1.85-4.13,4.14,1.85,4.14,4.13,4.14Z"/><path class="cls-29" d="M655.98,345.67l-44.49-20.88c-.79-.39-1.44-.99-1.9-1.74-.46-.75-.69-1.61-.68-2.49,.01-.88,.27-1.73,.75-2.47,.48-.73,1.15-1.32,1.95-1.68l82.7-36.44c.58-.26,1.21-.39,1.84-.39s1.26,.13,1.84,.39l56.85,24.42-98.85,41.28Z"/><path class="cls-24" d="M653.29,277.01c.1,18.42,2.74,68.66,2.74,68.66l98.85-41.35-2.22-69.92c-.03-.99-.3-1.96-.8-2.82-.49-.86-1.19-1.58-2.03-2.11s-1.8-.83-2.79-.9c-.99-.06-1.98,.12-2.88,.53l-85.09,38.85c-1.74,.78-3.21,2.05-4.23,3.66-1.03,1.61-1.57,3.48-1.55,5.38Z"/><path class="cls-9" d="M655.98,345.67l98.85-41.35-2.22-69.92s-.65-7.64-8.49-5.29"/><path class="cls-9" d="M703.82,295.41l6.67-15.79"/><path class="cls-9" d="M710.49,295.41l6.67-15.79"/><path class="cls-4" d="M193.6,467.73c2.28,0,4.13-1.85,4.13-4.14s-1.85-4.14-4.13-4.14-4.13,1.85-4.13,4.14,1.85,4.14,4.13,4.14Z"/><path class="cls-4" d="M542.26,489.89c3.18,0,5.75-2.58,5.75-5.76s-2.58-5.76-5.75-5.76-5.75,2.58-5.75,5.76,2.58,5.76,5.75,5.76Z"/><path class="cls-22" d="M236.47,525.04c16.37,7.54,34.2,11.37,52.22,11.22,.34,0,.67,.08,.97,.22,.3,.14,.58,.34,.8,.59,.22,.25,.39,.55,.48,.87,.1,.32,.13,.66,.09,.99l-3.61,28.67c-.07,.5-.3,.96-.65,1.32-.35,.36-.81,.59-1.3,.67-7.32,1.39-36.78,5.44-58.89-13.4-.34-.29-.58-.67-.71-1.09-.13-.42-.14-.88-.02-1.3l7.29-27.35c.1-.33,.27-.64,.51-.9,.23-.26,.52-.46,.84-.59,.32-.14,.66-.2,1.01-.18,.35,.01,.68,.1,.99,.26Z"/><path class="cls-9" d="M239.06,533.42s12.74,17.94,17.29,20.51c4.55,2.58,29.09-12.09,29.09-12.09"/><path class="cls-9" d="M268.37,551.45l13.39,13.78"/><path class="cls-9" d="M249.76,548.79l-15.67,4.27"/><path class="cls-1" d="M646.51,185.74h-14.96v14.99h14.96v-14.99Z"/><path class="cls-17" d="M633.56,387.85l4.45,7.72,4.45,7.72h-17.77l4.43-7.72,4.45-7.72Z"/><path class="cls-9" d="M274,46.09l1.17-35.03c-.13-3.35,1.2-4.3,3.21-4.76,9.5-2.09,38.45-8.54,69.77,.75,4.06,1.21,3.93,3.35,3.86,5.29l-1.12,33.39c-.08,.62-.29,1.22-.62,1.76-.33,.54-.76,1-1.28,1.36-.52,.36-1.1,.6-1.72,.72-.62,.12-1.25,.1-1.86-.04-11.38-1.36-22.85-1.92-34.31-1.67-11.02-.05-22.03,.84-32.9,2.66-3.11,.59-4.28-1.69-4.2-4.44Z"/><path class="cls-9" d="M284.57,41.06l18.29-21.44,20.23,20.01c-6.99-2.36-38.52,1.42-38.52,1.42Z"/><path class="cls-9" d="M314.05,29.47l14.78-11.86,12.46,8.91,.47,13.92-18.68-.9"/><path class="cls-9" d="M292.47,17.95c.17-1.68-1.29-3.21-3.27-3.41-1.98-.2-3.71,1-3.88,2.69s1.29,3.21,3.27,3.41c1.97,.2,3.71-1,3.88-2.69Z"/><path class="cls-9" d="M627.46,501.11l12.26,22.67c1.29,2.03,.84,3.18-.28,4.22-5.25,4.87-21.25,19.71-44.66,25.51-3.03,.75-3.74-.67-4.41-1.93l-11.7-21.62c-.18-.43-.26-.89-.25-1.35,0-.46,.11-.92,.31-1.34,.2-.42,.47-.8,.82-1.1,.35-.31,.75-.54,1.19-.68,7.74-3.36,15.23-7.28,22.4-11.72,7.07-4.03,13.78-8.67,20.06-13.85,1.67-1.68,3.34-.59,4.26,1.19Z"/><path class="cls-9" d="M622.65,508.29l-3.66,20.42-20.26-5.17c5.27-1.14,23.93-15.24,23.93-15.24Z"/><path class="cls-9" d="M608.18,526.58l-5,13.03-11.2-1.02-5.47-8.67,12.19-6.38"/><path class="cls-9" d="M629.44,526.93c1.33-.61,1.99-2.01,1.47-3.14-.51-1.13-2.01-1.55-3.33-.94-1.33,.61-1.99,2.01-1.47,3.14,.52,1.13,2.01,1.55,3.33,.94Z"/><path class="cls-7" d="M567.77,113.96l49.81,38.18c.26,.2,.55,.35,.87,.43,.32,.08,.65,.1,.97,.06,.32-.05,.64-.15,.92-.32,.28-.17,.53-.39,.72-.65l7.52-10.22c.37-.51,.53-1.14,.45-1.76-.08-.62-.41-1.19-.9-1.58l-49.11-39.37c-.26-.21-.56-.36-.88-.45-.32-.09-.66-.11-.99-.07-.33,.05-.65,.16-.93,.33-.29,.17-.53,.4-.73,.67l-8.23,11.39c-.37,.52-.52,1.16-.43,1.78,.09,.63,.43,1.19,.93,1.58Z"/><path class="cls-4" d="M571.45,112.25l12.07,8.49,7.14-8.52-12.09-10.1-7.12,10.13Z"/><path class="cls-21" d="M588.07,124.06l12.11,9.61,6.49-7.99-12.19-9.9-6.4,8.27Z"/><path class="cls-17" d="M604.24,137.36l12.09,8.49,5.75-7.4-11.44-9.6-6.4,8.51Z"/><path class="cls-7" d="M667.17,60.57l11.35,95.46c.05,.5,.2,.99,.45,1.43,.24,.44,.57,.83,.97,1.14,.4,.31,.85,.54,1.34,.68,.49,.13,.99,.17,1.49,.1l19.23-2.65c.97-.13,1.84-.63,2.44-1.4,.6-.77,.88-1.74,.78-2.71l-9.31-96.03c-.05-.51-.2-1-.45-1.45-.25-.45-.58-.84-.98-1.15-.4-.31-.86-.54-1.35-.67-.49-.13-1.01-.16-1.51-.08l-21.25,3.11c-.98,.14-1.86,.66-2.46,1.45-.6,.79-.86,1.78-.74,2.76Z"/><path class="cls-4" d="M672.97,62.8l3.6,22.34,16.95-1.26-1.86-24.07-18.69,2.98Z"/><path class="cls-23" d="M677.79,93.68l2.39,23.56,15.68-1.41-2.17-23.95-15.9,1.79Z"/><path class="cls-21" d="M680.48,125.67l3.59,22.34,14.26-1.57-1.72-22.83-16.13,2.06Z"/><path class="cls-7" d="M642.39,80.9l31.43,92.56c.13,.38,.33,.73,.59,1.02,.26,.3,.58,.54,.94,.72,.36,.17,.75,.27,1.14,.29,.4,.02,.79-.04,1.17-.17l19.7-7.1c.73-.27,1.32-.8,1.67-1.5,.34-.7,.4-1.5,.17-2.24l-29.51-93.46c-.12-.39-.33-.75-.59-1.06-.27-.31-.59-.56-.96-.74-.37-.18-.76-.28-1.17-.3-.41-.02-.81,.04-1.19,.18l-21.6,8.02c-.73,.27-1.33,.81-1.67,1.52-.34,.71-.38,1.52-.12,2.25Z"/><path class="cls-17" d="M648.76,82.59l8.16,21.12,16.32-4.77-6.8-23.16-17.67,6.82Z"/><path class="cls-15" d="M659.9,111.8l7.22,22.56,15.05-4.66-7.09-22.98-15.18,5.07Z"/><path class="cls-21" d="M669.16,142.53l8.16,21.1,13.63-4.52-6.42-21.97-15.37,5.39Z"/><path class="cls-19" d="M405.47,197.81H246.72c-5.06,0-9.16,4.11-9.16,9.18v21.52c0,5.07,4.1,9.18,9.16,9.18h158.75c5.06,0,9.16-4.11,9.16-9.18v-21.52c0-5.07-4.1-9.18-9.16-9.18Z"/><path class="cls-5" d="M345.98,209.55h-86.54c-1.67,0-3.03,1.36-3.03,3.03s1.35,3.03,3.03,3.03h86.54c1.67,0,3.03-1.36,3.03-3.03s-1.36-3.03-3.03-3.03Z"/><path class="cls-9" d="M257.28,223.48h147.12"/><path class="cls-23" d="M182.01,122.79l2.5,2.75c.51,.56,.77,1.29,.74,2.05-.03,.75-.37,1.46-.92,1.97l-4.1,3.75c-.56,.51-1.29,.78-2.04,.74-.75-.03-1.46-.37-1.97-.92l-2.5-2.74,8.3-7.59Z"/><path class="cls-9" d="M159.46,117.45l11.81,12.95c.61,.67,1.65,.72,2.32,.1l8.16-7.47c.67-.61,.72-1.65,.1-2.32l-11.81-12.95c-.61-.67-1.65-.72-2.32-.1l-8.16,7.47c-.67,.61-.72,1.65-.11,2.32Z"/><path class="cls-4" d="M147.13,176.28h-14.83v13.56h14.83v-13.56Z"/><path class="cls-9" d="M132.3,167.55v8.73h-8.86"/><path class="cls-21" d="M635.77,23.09h-14.83v13.56h14.83v-13.56Z"/><path class="cls-9" d="M620.94,14.37v8.73h-8.86"/><path class="cls-9" d="M219.53,106.94c-153.82-63.84-272.13,59.12,17.71,247.38,22.82,14.84,57.83,20.1,57.83,20.1"/><path class="cls-5" d="M78.1,115.62c2.42,0,4.38-1.96,4.38-4.39s-1.96-4.39-4.38-4.39-4.38,1.96-4.38,4.39,1.96,4.39,4.38,4.39Z"/><path class="cls-9" d="M50.21,87.13l4.8-4.62,11.02,6.33,5.55,17.13-16.94-7.1-4.43-11.74Z"/><path class="cls-9" d="M55.01,82.51l-4.8,4.62-2.69-3.27,4.6-4.42,2.89,3.06Z"/><path class="cls-9" d="M71.58,105.97l-11.02-12.11"/><path class="cls-7" d="M98.2,413.41l11.94,61.69c.06,.32,.19,.63,.37,.9,.18,.27,.42,.5,.69,.68,.27,.18,.58,.31,.9,.37,.32,.06,.65,.06,.97,0l12.41-2.65c.62-.13,1.17-.5,1.52-1.03,.36-.53,.49-1.17,.38-1.8l-10.6-62.08c-.06-.33-.18-.64-.36-.92-.18-.28-.42-.52-.69-.7-.28-.18-.59-.31-.91-.37-.33-.06-.66-.05-.99,.02l-13.69,3.05c-.31,.06-.61,.18-.88,.36-.27,.18-.49,.4-.67,.67-.18,.26-.3,.56-.37,.87-.06,.31-.07,.64,0,.95Z"/><path class="cls-4" d="M102.12,414.58l3.41,14.39,10.97-1.62-2.34-15.59-12.04,2.83Z"/><path class="cls-21" d="M106.74,434.48l2.68,15.22,10.15-1.66-2.56-15.51-10.27,1.94Z"/><path class="cls-17" d="M110.02,455.17l3.39,14.39,9.21-1.72-2.19-14.77-10.42,2.11Z"/><path class="cls-9" d="M440.47,568l50.49-13.53,1.94,5.48-51.08,13.28-1.35-5.23Z"/><path class="cls-9" d="M433.44,560.93l1.47,4.59"/><path class="cls-9" d="M432.02,563.93l4.26-1.47"/><path class="cls-9" d="M431,578.46l2.74,8.67"/><path class="cls-9" d="M428.66,583.96l7.59-2.41"/><path class="cls-9" d="M419.45,564.16l3.6,11.49"/><path class="cls-9" d="M415.89,571.31l10.63-3.4"/><path class="cls-10" d="M72.18,18.44L40.23,3.99l1.32-3.65,32.15,14.82-1.52,3.28Z"/><path class="cls-10" d="M72.83,25.1l1.19-3.01"/><path class="cls-10" d="M74.84,24.15l-2.84-1.06"/><path class="cls-10" d="M81.53,17.03l2.26-5.66"/><path class="cls-10" d="M85.07,15.17l-4.95-1.98"/><path class="cls-10" d="M81.46,29.37l3.01-7.49"/><path class="cls-10" d="M86.34,27.18l-6.96-2.76"/><path class="cls-27" d="M191.64,288.81c-22.54-16.24-44.68-41.5-34.96-67.44,0,0,15.53-10.37,40.13,2.6l24.61,13.03-29.78,51.81Z"/><path class="cls-6" d="M181.43,397.05c-10.15-4.81-53.42-27.38-61.13-65.95-6.69-33.29,18.79-78.22,31.53-98.09-.82,26.34,25.6,48.65,38.34,57.83,10.84,7.98,22.8,14.32,35.5,18.79l-44.24,87.42Z"/><path class="cls-3" d="M149.89,240.85c2.76,17.52,16.1,35.65,38.81,52.03,10.25,7.57,21.5,13.67,33.44,18.1l-41.8,82.73c-12.77-6.36-50.51-27.9-57.55-63.1-5.83-29.26,13.96-68.06,27.14-89.76h-.03Zm6.82-19.48s-47.9,64.84-38.84,110.23c9.06,45.38,64.74,68.66,64.74,68.66l46.6-92.11c-14.56-5.34-24.03-9.7-37.54-19.44-22.54-16.24-44.67-41.5-34.96-67.44v.1Z"/><path class="cls-9" d="M144.09,259.05c1.4,8.43,4.73,16.43,9.73,23.37,4.99,6.94,11.52,12.62,19.07,16.62"/><path class="cls-9" d="M186.79,308.36l26,13.95"/><path class="cls-9" d="M147.8,296.26s8.36,18.61,35.28,30.7"/><path class="cls-9" d="M126.43,299.05s.94,19.54,13.93,26.06"/><path class="cls-9" d="M156.16,231.16s-2.41,25.12,35.48,57.66"/><path class="cls-9" d="M170.09,235.81s12.07-.94,29.71,12.09"/><path class="cls-9" d="M113.24,315.89c-.77,12.44,.79,57.54,65.99,86.31"/><path class="cls-26" d="M529.68,290.81l-27.66,55.52s18.76,6.92,4.1,28.47c0,0,34.68,14.4,57.37-22.99,22.69-37.4-33.81-60.99-33.81-60.99Z"/><path class="cls-8" d="M466.38,460.48c-13.99,0-28.76-5.73-43.92-17.03l51.73-85.88,30.78,19.41,.2,.08c5.38,1.98,11.07,2.96,16.8,2.91,9.72,.06,19.21-2.95,27.14-8.59l-37.82,64.89c-.08,.12-16.37,24.25-44.91,24.25v-.05Z"/><path class="cls-28" d="M475.03,361.09l28.42,17.94,.37,.23,.39,.15c5.69,2.11,11.71,3.16,17.77,3.11,6.97,.03,13.86-1.42,20.23-4.25l-33,56.55c-1.07,1.57-16.39,23.14-42.8,23.14-12.89,0-26.53-5.11-40.61-15.19l49.24-81.69Zm88.46-9.31c-12.82,21.13-29.46,25.72-41.52,25.72-5.4,.04-10.77-.88-15.85-2.73l-32.75-20.65-54.15,89.96c18.09,13.97,33.92,18.99,47.18,18.99,30.28,0,47.07-25.49,47.07-25.49l50.03-85.73v-.08Z"/><path class="cls-9" d="M502.03,346.32s20.63,7.3,4.1,28.47"/><path class="cls-9" d="M472.72,352.18s28.11,25.79,43.66,25.61c15.55-.18,33.81-3.87,44.56-22.46"/><path class="cls-9" d="M476.18,385.54s19.28,17.15,40.85,11.64"/><path class="cls-9" d="M496.43,411.16s10.11,7.59,24.26,.4"/><path class="cls-9" d="M449.88,421.75s23.41,23.26,60.11,7.92"/><path class="cls-9" d="M462.59,399.06s9.53,6.83,15.5,9.01"/><path class="cls-9" d="M534.43,306.92s21.32,6.98,23.88,35.17"/><path class="cls-9" d="M545.15,341.73s9.82,15.22-6.77,30.43"/><path class="cls-9" d="M421.12,439.9s53.5,67.12,92.38-11.37"/><path class="cls-13" d="M34.74,273.47h12.47"/><path class="cls-13" d="M729.87,123.14h12.47"/><path class="cls-14" d="M395.22,37.4h12.49"/><path class="cls-14" d="M753.7,187.97l12.27,2.21"/><path class="cls-12" d="M263.5,499.84h12.49"/><path class="cls-23" d="M780.58,348.16c2.28,0,4.13-1.85,4.13-4.14s-1.85-4.14-4.13-4.14-4.13,1.85-4.13,4.14,1.85,4.14,4.13,4.14Z"/><path class="cls-23" d="M4.13,149.51c2.28,0,4.13-1.85,4.13-4.14s-1.85-4.14-4.13-4.14-4.13,1.85-4.13,4.14,1.85,4.14,4.13,4.14Z"/></svg>