<?xml version="1.0" encoding="UTF-8"?><svg id="Layer_1" xmlns="http://www.w3.org/2000/svg" xmlns:xlink="http://www.w3.org/1999/xlink" viewBox="0 0 626.5 570.09"><defs><style>.cls-1{fill:url(#radial-gradient);}.cls-1,.cls-2,.cls-3{fill-rule:evenodd;}.cls-4{fill:#b0b2ba;opacity:.35;}.cls-2{fill:url(#radial-gradient-2);}.cls-5,.cls-3{opacity:.5;}.cls-6{clip-path:url(#clippath-1);}.cls-3{fill:#8ecae6;}.cls-7{clip-path:url(#clippath);}.cls-8,.cls-9{fill:none;}.cls-9{opacity:.46;stroke:#8ecae6;stroke-miterlimit:10;stroke-width:24px;}</style><clipPath id="clippath"><rect class="cls-8" width="552" height="562"/></clipPath><radialGradient id="radial-gradient" cx="-197.28" cy="847.16" fx="-197.28" fy="847.16" r="1" gradientTransform="translate(54727.39 234068.22) scale(276.01 -275.97)" gradientUnits="userSpaceOnUse"><stop offset=".81" stop-color="#008bc4"/><stop offset=".98" stop-color="#023047" stop-opacity="0"/></radialGradient><radialGradient id="radial-gradient-2" cx="-197.44" cy="847.34" fx="-197.44" fy="847.34" r="1" gradientTransform="translate(69728.68 298458.75) scale(352.05 -352)" gradientUnits="userSpaceOnUse"><stop offset="0" stop-color="#8ecae6"/><stop offset=".84" stop-color="#023047"/><stop offset=".95" stop-color="#023047"/><stop offset="1" stop-color="#219ebc"/></radialGradient><clipPath id="clippath-1"><circle class="cls-8" cx="358.16" cy="358.09" r="200"/></clipPath></defs><g class="cls-7"><g><path class="cls-1" d="M552.01,275.98c0,152.4-123.6,275.95-276.02,275.95-40.55,.05-80.62-8.87-117.31-26.13-7.03-3.29-13.89-6.91-20.59-10.77-26.73-15.44-50.68-35.26-70.85-58.62-7.35-8.46-14.18-17.37-20.43-26.67-8.55-12.71-16.02-26.11-22.33-40.07C8.32,353.95-.02,315.19,.04,275.98c-.05-39.28,8.31-78.11,24.53-113.88,5.01-11.1,10.78-21.83,17.25-32.14,13.89-22.27,30.9-42.44,50.51-59.89C142.82,24.88,208.23-.06,275.99,.04c22.06-.01,44.05,2.61,65.48,7.83,28.8,7.01,56.27,18.64,81.34,34.44,4.82,3.04,9.54,6.21,14.13,9.54,3.85,2.75,7.63,5.64,11.32,8.61,18.12,14.43,34.34,31.09,48.28,49.58,29.8,39.44,48.38,86.22,53.75,135.36,1.15,10.16,1.73,20.37,1.71,30.59Z"/><path class="cls-2" d="M532.04,275.98c0,141.39-114.67,255.99-256.05,255.99-37.63,.06-74.81-8.23-108.86-24.26-6.51-3.04-12.88-6.39-19.1-9.98-24.79-14.33-47.01-32.71-65.73-54.38-6.82-7.85-13.14-16.12-18.94-24.75-7.94-11.79-14.88-24.22-20.75-37.16-14.99-33.12-22.72-69.07-22.67-105.43-.05-36.44,7.71-72.46,22.75-105.64,4.65-10.29,10-20.26,16.01-29.82,12.89-20.66,28.67-39.37,46.87-55.55C152.41,43.07,213.09,19.93,275.95,20.02c20.47,0,40.86,2.43,60.75,7.27,26.71,6.49,52.19,17.28,75.45,31.93,4.48,2.83,8.85,5.77,13.1,8.86,3.59,2.56,7.09,5.27,10.55,7.99,16.79,13.41,31.83,28.89,44.75,46.06,27.65,36.58,44.89,79.97,49.86,125.56,1.08,9.39,1.62,18.84,1.63,28.29Z"/><g class="cls-5"><g class="cls-5"><path class="cls-3" d="M530.46,247.62c-.9,1.65-1.66,3.36-2.29,5.13-.96,2.56-2.17,5.02-3.61,7.34-1.49,3.04-2.81,6.16-3.95,9.34-2.98,6.89-5.17,14.38-7.65,21.47-2.75,7.91-5.35,15.82-8.74,23.46-1.52,3.47-3.73,6.59-5.27,9.98-1.54,3.39-3.06,6.71-4.94,9.99-4.67,8.01-8.88,16.18-13.83,24.07-8.88,14.19-19.57,26.81-29.93,39.92-5.27,6.59-11.41,12.35-17.41,18.31-6.77,6.7-12.73,14.19-19.77,20.74-5.35,5.31-11.13,10.16-17.29,14.5-3.53,2.33-6.93,4.93-10.47,7.22-4.52,2.94-9.83,4.6-14.66,6.97-16.04,7.72-33.22,12.55-50.09,17.96-16.53,5.27-32.47,12.51-49.34,16.72-3.47,.87-6.97,1.21-10.48,1.92-3.8,.75-7.45,1.85-11.34,2.25-7.75,.87-15.25,3.47-23.08,3.95-5.47,.26-10.54-.79-15.9-1.05-6.86-.12-13.72,.18-20.54,.9-7.58,.49-15.19,.2-22.71-.87-6.51-3.04-12.88-6.39-19.1-9.98l.71,.22c4.46,1.44,8.59,3.95,13.08,5.05,4.78,1.09,9.75,1.88,14.7,2.71,6.47,1.13,13.09,1.17,19.57,.12,3.47-.57,6.97-.99,10.44-1.7,3.77-.79,7.57,.18,11.34-.67,5.27-1.32,11.04-.26,16.38-.46,9.23-.3,18.23-3.69,27.13-5.5,9.87-1.99,19.24-5.57,29.3-6.77,5.73-.68,10.24-2.64,15.67-4.34,4.67-1.44,7.64-4.03,11.52-6.97,7.46-5.57,15-11.29,23.73-14.91,8.71-3.54,17.76-6.19,27.01-7.91,7.96-1.55,15.39-5.08,21.62-10.28,2.57-2.31,5.01-4.72,7.54-7.05,3.23-2.68,6.32-5.55,9.23-8.58,3.16-3.62,6.78-6.93,9.9-10.54,3.47-4.02,6.3-8.54,9.73-12.57,5.46-6.44,13.79-9.79,19.16-16.34,1.13-1.32,1.89-3.02,3.06-4.34,1.17-1.32,2.52-2.07,3.27-3.83,.91-2.15,3.14-7.12,1.92-9.53-2.41-4.86-15.18,7.64-17.21,9.59-3.16,2.98-5.76,6.04-9.57,8.21-2.24,1.41-4.58,2.65-7,3.73-4.07,1.66-8.78,1.85-13.08,2.75-11.94,2.56-24.11,3.95-36.15,5.84-16.32,2.52-32.81,5.94-48.86,9.86-15.03,3.66-29.91,7.91-44.93,11.45-7.99,1.92-15.98,3.95-23.99,5.69-9.79,2.19-19.4,5.19-29.24,7.08-16.2,2.94-32.49,6.52-49.01,6.97-12.96,.34-25.79,1.01-38.76,1.01-17.46,0-36.19,1.77-53.33-2.33-.22-.05-.44-.11-.65-.18-6.82-7.85-13.14-16.12-18.94-24.75,6.27,2.81,12.84,4.87,19.59,6.14,4.9,.87,10.1,1.99,14.16,4.93,2.54,2.05,5.4,3.67,8.48,4.78,11.15,3.58,21.09,3.36,32.25,.08,4.17-1.24,8.32-2.53,12.43-3.88,3.04-1.03,5.84-2.83,8.88-3.66,8.63-2.25,17.56-3.88,26.26-5.87,4.14-.95,8.48-1.74,12.55-2.98,4.59-1.44,8.88-3.77,13.29-5.57,8.44-3.47,16.28-7.04,25.32-8.59,5.68-.94,12.27-1.65,17.48-4.28,1.69-.83,4.22-2,3.95-4.26-.3-2.79-3.95-2.04-5.96-1.7-5.84,1.02-11.78,1.54-17.58,3.08-10.24,2.66-20.73,4.28-31.3,4.82-15.9,1.05-32.1,2-48.03,1.17-12.65-.65-25.39-1.78-38.04-1.66-12.24,.12-24.15-.93-35.79-4.78-13.14-4.32-26.52-8.28-38.67-14.95-14.99-33.12-22.72-69.07-22.67-105.43-.05-36.44,7.71-72.46,22.75-105.64-1.7,4.68-3.12,9.46-5.09,13.97-3.95,8.7-6.06,18.12-6.21,27.68,.24,3.74,.21,7.48-.08,11.22-.65,4.74-1.01,7.8,.34,12.59,1.01,3.51,1.32,6.89,2.86,10.28,.5,1.06,1.18,2.01,2.03,2.82,.75,1.07,1.42,2.19,2,3.36,2.07,3.39,5.05,7.91,8.62,9.86,2.39,1.19,4.89,2.14,7.46,2.83,3.01,.86,4.18,1.2,7.2,.11,2.44-.98,5-1.63,7.61-1.95,1.44,.16,2.85,.47,4.22,.94,1.81,.3,3.59,.14,5.43,.53,7.53,1.58,14.87,3.43,22.59,3.35,6.06-.07,12.02,.95,18.16,.95,7.38,0,14.68,.22,21.99-.71,4.94-.65,10.25-1.89,15.18-2.19,4.93-.3,10.22,.15,15.25,.08,17.52-.28,35.59-4.49,50.81-13.34,8.12-4.78,16.82-8.5,25.89-11.07,11.68-3.36,23.61-6.67,35.59-8.93,11.12-2.15,21.94-5.65,32.23-10.4,4.54-2.15,8.89-4.68,13-7.58,3.77-2.56,7.91-4.51,11.52-7.18,10.55-7.8,19.77-16.95,29-26.25,5.27-5.27,10.62-10.54,16.13-15.59,4.55-4.15,9.37-6,15.21-7.42,9.31-2.23,14.5-12.69,19.51-20.19,6.33-9.45,11.57-20.3,11.86-31.93,.15-4.8-.21-9.59-1.1-14.31-.31-2.12-.91-4.18-1.77-6.14-.74-1.19-1.35-2.46-1.85-3.77-.26-1.12-.3-2.29-.53-3.31s-.75-2.04-.98-2.86c-.53-2.19-1.62-5.21-1.48-7.62v-.14c3.58,2.56,7.09,5.27,10.55,7.99,.06,1,.04,2.01-.08,3-.22,1.21-.65,2.23-.87,3.43-.3,1.78-.98,2.79-.94,4.74-.08,1.95,.07,3.9,.45,5.81,1.24,4.74,4.34,9.15,4.3,14.15-.14,5.08-1.27,10.09-3.32,14.75-1.81,4.52-3.76,8.7-5.94,13.03-1.41,2.86-3.08,5.59-5.01,8.13-1.95,2.32-3.71,4.79-5.27,7.38-1.13,2.08-2.15,4.22-3.06,6.4-1.66,3.95-4.34,6.02-7.34,8.96-6.18,5.96-13.91,10.78-20.54,16.5-5.45,4.52-10.38,9.62-14.72,15.21-1.88,2.64-11.52,10.13-8.92,14.09,1.16,1.74,4.82,1.17,6.47,1.17,3.79-.04,7.52-.87,10.97-2.45,9.37-4.26,18.72-9.3,28.59-12.24,4.44-1.32,9.23-2.03,13.4-3.95,5.07-2.36,9.98-5.05,14.7-8.05,3.73-2.31,5.95-5.27,8.74-8.59,1.58-1.88,3.8-2.94,5.54-4.66,2.03-2.04,3.31-4.41,5.58-6.18,5.55-4.42,10.39-9.65,14.38-15.51,3.66-5.27,5.01-11.86,6.59-17.86,.52-1.54,.87-3.13,1.05-4.75,.07-2.03,0-4.14,0-6.18v-.33c27.66,36.6,44.9,80.01,49.86,125.61Z"/></g><g class="cls-5"><path class="cls-3" d="M413.77,80.79c-.98,5.8-1.5,11.52-2.64,17.32-1.13,5.8-1.42,12.24-3.77,17.59-3.95,9.23-5.19,19.47-11.44,27.6-2.64,3.47-4.72,7.2-8.11,10.1-1.29,.85-2.65,1.6-4.06,2.23-1.32,.87-2.71,2.19-3.95,3.12-6.71,4.9-13.83,9.95-19.77,15.82-6.37,6.26-12.43,12.4-19.96,17.33-2.27,1.46-4.64,2.52-6.97,3.81-1.81,1.2-3.7,2.28-5.65,3.23-2.37,.73-4.62,1.8-6.69,3.16-1.83,1.35-3.82,2.48-5.92,3.36-3.61,1.42-7.12,3.12-10.73,4.52-1.66,.67-3.4,1.05-5.09,1.65-4.78,1.82-8.29,1.66-14.5,2.15-1.95-.86-.29-.94,1.32-1.65,.99-.45,1.86-1.12,2.56-1.96,1.34-1.44,2.8-2.76,4.36-3.95,2.71-1.96,6.3-2.94,9.23-4.71,3.73-2.33,7.42-5.17,11.03-7.68,3.06-2.11,5.35-5.43,7.91-8.07,2.71-2.86,6-5.42,8.96-8.09,3.47-3.08,6.44-6.59,9.95-9.65,3.63-3.08,6.62-6.85,8.82-11.07,.98-1.81,2.56-3.12,3.57-4.97,1.06-1.67,2.02-3.4,2.86-5.19,.87-2.15,2-4.15,2.94-6.22,1.05-2.41,1.01-5.27,1.54-7.79,1.58-7.54,3.1-15.14,4.48-22.72,.97-6.44,1.45-12.95,1.44-19.47,.22-6.18,1.96-12.2,1.99-18.45,.22-2.29-.09-4.6-.9-6.75-1.32-2.94-2.79-5.5-3.85-8.55-3.22-9.41-9.19-17.63-17.14-23.6-1.2-.87-5.01-3.16-8.78-5.92,26.71,6.49,52.19,17.28,75.45,31.93,2.06,6.99,2.57,14.34,1.5,21.55Z"/></g><g class="cls-5"><path class="cls-3" d="M339.57,81.2c-.55,3.24-2.52,5.69-3.43,8.78-1.04,3.5-1.82,7.08-2.33,10.7-.75,5.49-.26,10.95-.9,16.49-1.39,10.44-4.51,20.57-9.23,29.98-4.6,9.37-12.47,17.05-21.09,22.87-8.88,6.06-18.76,10.69-28.47,15.17-5.54,2.53-11.38,3.58-17.03,5.73-4.75,1.77-9.41,3.79-14.13,5.64-4.72,1.85-8.96,5.01-13.63,6.52-2.9,.94-5.76,1.91-8.66,2.96-4.98,1.78-9.5,4.41-14.35,6.49-6.86,2.96-13.97,5.3-21.25,6.97-7.2,1.69-14.16,.59-21.39-.3-6.08-.56-12.13-1.44-18.12-2.64-10.95-2.63-22.75-1.88-33.93-1.88-8.48,0-18.27,.83-25.77-3.77-2.15-1.32-4.52-2.71-5.72-4.97-1.48-2.79-1.66-6.33-2.31-9.34-1.32-6.21-7.22-10.44-11.26-14.99-5.27-5.96-7.28-13.48-8.33-21.17-1.01-6.62-.86-13.36,.46-19.93,12.89-20.65,28.68-39.35,46.87-55.52-4.28,8.13-7.53,16.76-11.3,25.16-5.68,12.57-10.69,26.28-10.2,40.33,.18,5.51,.63,11.68,3.57,16.46,2.27,3.69,6,6.37,9.61,8.55,5.92,3.54,11.86,7.46,18.23,9.9,7.2,2.75,14.39,5.39,21.55,8.14,4.18,1.58,8.21,3.39,12.73,3.95,5.55,.44,11.13,.49,16.69,.14,19.69-.53,37.88-9.75,56.41-15.33,5.96-1.81,12.14-2.64,18.01-4.59,3.53-1.31,6.96-2.87,10.25-4.68,8.24-4.26,17.24-7.46,24.96-12.77,7.71-5.35,14.67-11.69,20.72-18.86,4.6-5.51,6.67-11,8.92-17.78,4.44-13.34,6.14-26.17,7.34-40.08,.53-5.9,2.57-11.18,3.95-16.91,.9-3.8,.37-8.17-2.64-10.93-6.1-5.38-15.11-8.74-22.91-10.54-4.74-1.13-9.23-2.64-14.16-2.64h-14.43c-4.82,0-9.15-1.01-13.79-1.01-5.46,0-10.54,1.54-15.94,1.96-5.64,.4-11.26,1.1-16.83,2.11-6.59,1.16-12.96,3.8-19.36,5.72-12.78,3.77-24.77,9.82-35.39,17.86-2.64,2.03-5.5,3.65-8.25,5.46-2.41,1.62-3.28,3.47-4.82,5.88-3.14,4.78-5.44,10.07-6.78,15.63-.84,4.02-1.13,8.14-.87,12.24-.07,5.54-.61,11.07-1.62,16.53-1.32,7.68-8.7,19.1-.57,25.24,1.13,.82,2.41,1.4,3.77,1.72,1.36,.32,2.77,.36,4.14,.13,4.15-.66,8.25-1.62,12.27-2.86,11.27-3.16,23.05-6.93,34.73-8.41,3.55-.45,6.89-.18,10.4-1.08,2.19-.61,4.26-1.32,6.47-1.74,5.13-.94,10.25-4.26,14.27-7.6,1.85-1.54,3.36-3.43,5.27-4.97,2.56-2.11,5.64-3.51,8.09-5.77,3.51-3.23,6.85-6.73,10.14-10.2,6.74-7.08,11.6-15.93,17.32-23.72,3.62-4.94,7.64-10.32,8.63-16.46,.75-4.74-5.05-7.27-8.59-8.78-3.85-1.63-8.06-2.22-12.21-1.7-5.76,1.03-11.03,4.45-16.38,6.75-11.78,5.17-24.94,6.44-35.18,14.72-3.73,2.98-3.54,5.84-4.71,9.99-.8,1.99-1.77,3.9-2.9,5.72-1.54,2.86-1.74,3.57-.95,6.59,.79,3.02,1.52,7.04,4.94,8.36,2.96,1.17,7.75,.16,10.32-1.46,1.45-1.14,3.03-2.1,4.71-2.86,1.09-.42,3.77-1.66,4.82-1.32,1.89,.71,.49,1.87-.3,2.9-.68,.9-1.25,1.87-1.7,2.9-.2,1.04-.59,2.03-1.13,2.94-3.01,3.43-8.99,5.15-13.18,6.59-3.65,1.32-6.39,2.78-10.39,2.82-5.39,0-3.2-3.95-3.96-7.91-1.05-5.01-6.83-6.88-7.46-12.08-.63-5.21,.98-10.95,3.08-15.51,.97-1.91,2.09-3.74,3.36-5.47,1.99-3.04,4.93-4.85,7.98-6.89,8.96-5.9,20.15-8.74,30.32-12.16,10.16-3.43,21.25-4.02,31.3-7.6,6.85-2.45,14.05-3.24,21.09-4.52,6.51-1.16,12.24,1.4,14.95,7.34,2.87,6.3,6.26,13.11,4.26,20.09-2.71,9.59-5.9,19.12-10.95,27.8-6.22,10.69-13.79,20.78-25.04,26.7-7.91,4.18-16.5,6.51-24.86,9.63-6.32,2.52-12.89,4.37-19.6,5.52-10.44,1.58-20.01,7.75-30.21,10.32-14.05,3.5-28.27,6.27-42.6,8.28-5.04,.93-10.2,1.08-15.29,.46-2.41-.34-4.64-.12-6.93-1.13-1.62-.71-3.28-1.48-4.89-2.15-5.58-2.41-10.97-6.4-10.33-13.18,.61-6.37,2.91-12.77,4.11-19.02,.83-4.15,.91-8.25,1.92-12.4,.75-3.16,1.46-6.39,2.33-9.53,.68-2.74,1.79-5.36,3.28-7.75,2.97-4.15,5.27-9,8.4-12.96,1.34-1.45,2.55-3.01,3.61-4.68,.72-1.53,1.65-2.95,2.75-4.22,1.2-1.32,2.03-3.04,3.31-4.36,2.51-2.27,5.21-4.33,8.07-6.14,6.14-4.52,12.72-8.39,19.65-11.56,6.75-2.94,13.79-4.9,20.72-7.24,6.22-2.15,11.98-5.54,18.16-7.91,7-2.61,14.28-4.38,21.7-5.27,14.77-1.97,29.65-3.01,44.55-3.1,18.69,.08,39.4-7,57.14,1.92,4.53,2.08,8.08,5.82,9.95,10.44,3.14,7.51,4.68,15.59,4.52,23.72-.04,3.45,.37,7.04-.2,10.39Z"/></g></g></g></g><g class="cls-6"><image width="556" height="556" transform="translate(149 144.93) scale(.75)" xlink:href="1664615386474.jpg"/></g><circle class="cls-4" cx="552" cy="117.5" r="74.5"/><circle class="cls-9" cx="358.16" cy="358.09" r="200"/></svg>