<?xml version="1.0" encoding="UTF-8"?><svg id="Layer_1" xmlns="http://www.w3.org/2000/svg" viewBox="0 0 155 31.9"><defs><style>.cls-1{fill:#fff;}</style></defs><path class="cls-1" d="M10.21,6.42H3.62c-2,0-3.62-1.02-3.62-2.93S1.62,.55,3.62,.55H23.78c2,0,3.62,1.02,3.62,2.94s-1.62,2.93-3.62,2.93h-6.59V28.24c0,2.08-1.36,3.49-3.49,3.49s-3.49-1.4-3.49-3.49V6.42Z"/><path class="cls-1" d="M32.2,3.49c0-2.08,1.36-3.49,3.49-3.49s3.49,1.4,3.49,3.49V12.17h12.67V3.49c0-2.08,1.36-3.49,3.49-3.49s3.49,1.4,3.49,3.49V28.24c0,2.08-1.36,3.49-3.49,3.49s-3.49-1.4-3.49-3.49v-10.21h-12.67v10.21c0,2.08-1.36,3.49-3.49,3.49s-3.49-1.4-3.49-3.49V3.49Z"/><path class="cls-1" d="M73.2,2.13c.6-1.57,1.7-2.13,3.4-2.13h1.66c1.57,0,2.98,.38,3.74,2.55l8.42,23.44c.25,.68,.68,1.91,.68,2.68,0,1.7-1.49,3.06-3.27,3.06-1.53,0-2.64-.55-3.15-1.91l-1.79-5.1h-11.23l-1.83,5.1c-.47,1.36-1.45,1.91-3.1,1.91-1.91,0-3.23-1.19-3.23-3.06,0-.77,.43-2,.68-2.68L73.2,2.13Zm4.21,5.44h-.08l-4.13,12.29h8.17l-3.96-12.29Z"/><path class="cls-1" d="M95.79,4.64c0-3.1,1.62-4.08,4.08-4.08h11.61c8.29,0,10.51,4.55,10.51,8.51,0,3.32-1.96,6.59-5.27,7.36v.08c3.57,.51,4.21,3.1,4.21,6.21,0,3.53,.94,4.85,.94,6.29,0,1.62-1.66,2.72-3.28,2.72-3.83,0-4.13-3.7-4.13-4.93,0-5.36-.98-7.53-4.81-7.53h-6.89v8.97c0,2.08-1.36,3.49-3.49,3.49s-3.49-1.4-3.49-3.49V4.64Zm6.98,9.53h6.98c2.64,0,5.27-.68,5.27-4.13s-2-4.13-5.06-4.13h-7.19V14.16Z"/><path class="cls-1" d="M128.37,3.49c0-2.08,1.36-3.49,3.49-3.49s3.49,1.4,3.49,3.49V20.25c0,4.17,2.34,6.04,6.34,6.04s6.34-1.87,6.34-6.04V3.49c0-2.08,1.36-3.49,3.49-3.49s3.49,1.4,3.49,3.49V19.69c0,8.42-5.19,12.21-13.31,12.21s-13.31-3.79-13.31-12.21V3.49Z"/></svg>